<svg xmlns="http://www.w3.org/2000/svg"
 xmlns:xlink="http://www.w3.org/1999/xlink"
 width="106px" height="104px"  viewBox="0 0 106 104">
<path fill-rule="evenodd"  fill="#ffffff"
 d="M91.28931,82.76514 C91.28931,82.76514 96.03699,78.01318 96.03699,78.01318 C96.27612,77.84033 96.4834,77.61572 96.63623,77.34082 C103.03369,65.848145 104.61926,52.481934 101.10083,39.705566 C97.57849,26.915527 89.35803,16.242188 77.95337,9.651367 C66.43201,2.9956055 52.96228,1.2402344 40.025024,4.709961 C27.08728,8.177734 16.299438,16.438965 9.647949,27.96875 C2.9959717,39.499023 1.2420654,52.980957 4.708252,65.92822 C8.174927,78.87695 16.429077,89.67285 27.94983,96.3291 C29.551758,97.25488 31.201782,98.0874 32.889404,98.825195 C32.889404,98.825195 32.117188,98.825195 32.117188,98.825195 C30.966553,98.825195 30.03357,99.759766 30.03357,100.91016 C30.03357,102.0625 30.966553,102.995605 32.117188,102.995605 C32.117188,102.995605 52.786133,102.995605 52.786133,102.995605 C52.7948,102.995605 52.802734,102.99609 52.810913,102.99609 C52.815063,102.99609 52.818604,102.99609 52.82251,102.99609 C52.831055,102.99609 52.83911,102.995605 52.847656,102.995605 C52.847656,102.995605 73.78674,102.99609 73.78674,102.99609 C74.9375,102.99609 75.87036,102.0625 75.87036,100.91113 C75.87036,99.759766 74.9375,98.825195 73.78674,98.825195 C73.78674,98.825195 72.887695,98.825195 72.887695,98.825195 C74.28345,98.2207 75.653076,97.55322 76.99158,96.82324 C77.25696,96.71924 77.50281,96.563965 77.71069,96.35596 C77.71069,96.35596 82.70288,91.35889 82.70288,91.35889 C82.70288,91.35889 93.72131,102.38623 93.72131,102.38623 C94.11206,102.77734 94.64197,102.99805 95.19446,102.99805 C95.74695,102.99805 96.276855,102.77734 96.66797,102.38623 C96.66797,102.38623 102.30798,96.7417 102.30798,96.7417 C103.121826,95.927734 103.121826,94.60693 102.30798,93.79248 C102.30798,93.79248 91.28931,82.76514 91.28931,82.76514 ZM30.033325,92.71777 C19.476196,86.618164 11.911621,76.720215 8.733398,64.84863 C5.5550537,52.97705 7.161377,40.620117 13.256714,30.05371 C19.351562,19.48877 29.24121,11.918457 41.103516,8.737793 C52.965088,5.557129 65.31238,7.1640625 75.86987,13.263672 C96.94812,25.44336 104.75781,52.328125 93.76782,73.85693 C93.76782,73.85693 69.97925,67.478516 69.97925,67.478516 C69.25903,67.285645 68.4928,67.4917 67.96655,68.0166 C67.43994,68.54541 67.234375,69.313965 67.427246,70.03223 C67.427246,70.03223 73.789795,93.79639 73.789795,93.79639 C59.99768,100.79834 43.365234,100.421875 30.033325,92.71777 ZM95.194336,97.96338 C95.194336,97.96338 84.17615,86.93457 84.17615,86.93457 C83.78552,86.54443 83.25525,86.32471 82.70276,86.32471 C82.15027,86.32471 81.62036,86.54443 81.22974,86.93457 C81.22974,86.93457 77.31592,90.85254 77.31592,90.85254 C77.31592,90.85254 72.38635,72.44141 72.38635,72.44141 C72.38635,72.44141 90.783325,77.37402 90.783325,77.37402 C90.783325,77.37402 86.86951,81.29053 86.86951,81.29053 C86.47888,81.68213 86.2594,82.21289 86.2594,82.76514 C86.2594,83.31836 86.47888,83.84863 86.86951,84.23926 C86.86951,84.23926 97.88843,95.2666 97.88843,95.2666 C97.88843,95.2666 95.194336,97.96338 95.194336,97.96338 ZM26.293335,63.313965 C26.293335,63.313965 29.588135,63.313965 29.588135,63.313965 C32.477295,63.313965 34.495483,63.086426 35.643555,62.63037 C37.64148,61.838867 38.641113,60.036133 38.641113,57.22412 C38.641113,55.81787 38.329834,54.722656 37.7063,53.941895 C37.08313,53.15918 36.148193,52.61963 34.901367,52.322754 C35.96985,51.966797 36.751587,51.401367 37.246338,50.629883 C37.740845,49.856934 37.98828,48.82666 37.98828,47.541016 C37.98828,46.015625 37.58264,44.84131 36.771362,44.020508 C35.959717,43.197754 34.703613,42.696777 33.00183,42.51953 C31.972778,42.401855 30.89441,42.341797 29.766357,42.341797 C29.766357,42.341797 26.293701,42.341797 26.293701,42.341797 C24.215576,42.341797 23.177368,43.430664 23.177368,45.609863 C23.177368,45.609863 23.177368,60.16504 23.177368,60.16504 C23.177368,61.273926 23.429321,62.075684 23.934082,62.57129 C24.43811,63.06543 25.224854,63.313965 26.293335,63.313965 ZM27.272827,46.70703 C27.272827,45.995605 27.56958,45.637695 28.163574,45.637695 C28.163574,45.637695 30.21106,45.637695 30.21106,45.637695 C31.08191,45.637695 31.735107,45.697754 32.170166,45.816406 C32.724243,45.995605 33.14453,46.256348 33.431885,46.604004 C33.718384,46.949707 33.86206,47.509277 33.86206,48.28174 C33.86206,49.450195 33.416992,50.222656 32.52649,50.598633 C32.111206,50.777344 31.270142,50.867188 30.003662,50.867188 C30.003662,50.867188 27.27295,50.867188 27.27295,50.867188 C27.27295,50.867188 27.27295,46.70703 27.27295,46.70703 C27.27295,46.70703 27.272827,46.70703 27.272827,46.70703 ZM27.272827,54.134277 C27.272827,54.134277 30.181519,54.134277 30.181519,54.134277 C31.507324,54.134277 32.427734,54.233887 32.941895,54.43213 C33.95117,54.847656 34.456055,55.649414 34.456055,56.836914 C34.456055,58.302734 33.98108,59.22461 33.030884,59.601562 C32.536743,59.797363 31.725342,59.89795 30.597168,59.89795 C30.597168,59.89795 28.400879,59.89795 28.400879,59.89795 C27.985474,59.89795 27.69336,59.808105 27.525269,59.63086 C27.3573,59.453613 27.27295,59.16504 27.27295,58.768066 C27.27295,58.768066 27.27295,54.134277 27.27295,54.134277 C27.27295,54.134277 27.272827,54.134277 27.272827,54.134277 ZM71.71533,62.452637 C71.71533,63.0459 71.98218,63.342773 72.51697,63.342773 C72.51697,63.342773 75.010376,63.342773 75.010376,63.342773 C75.24756,63.342773 75.44531,63.265137 75.60364,63.10547 C75.76233,62.947266 75.84143,62.729492 75.84143,62.45166 C75.84143,62.45166 75.84143,54.490234 75.84143,54.490234 C75.84143,54.490234 82.37158,43.855957 82.37158,43.855957 C82.609375,43.44043 82.72766,43.124023 82.72766,42.905273 C82.72742,42.66748 82.60901,42.49951 82.371216,42.40088 C82.07446,42.30127 81.07507,42.251465 79.37329,42.251465 C78.89856,42.251465 78.49255,42.54834 78.15625,43.14258 C76.078735,46.568848 74.6637,49.004883 73.91199,50.45117 C73.00171,48.6875 71.59656,46.23291 69.69714,43.08252 C69.38049,42.529297 68.9845,42.251465 68.51001,42.251465 C66.51172,42.251465 65.40369,42.291016 65.186035,42.370117 C64.92847,42.48828 64.79993,42.677734 64.79993,42.934082 C64.79993,43.152344 64.92847,43.479492 65.186035,43.91455 C65.186035,43.91455 71.7157,54.609863 71.7157,54.609863 C71.7157,54.609863 71.7157,62.452637 71.7157,62.452637 C71.7157,62.452637 71.71533,62.452637 71.71533,62.452637 ZM59.882324,42.311035 C59.882324,42.311035 57.478516,42.311035 57.478516,42.311035 C56.944336,42.311035 56.67688,42.58789 56.67688,43.14258 C56.67688,43.14258 56.67688,55.946777 56.67688,55.946777 C56.67688,57.47168 56.45923,58.540527 56.02417,59.154297 C55.509766,59.90625 54.34253,60.282715 52.52185,60.282715 C50.839844,60.282715 49.721436,59.88672 49.16748,59.095215 C48.75183,58.520508 48.544434,57.45117 48.544434,55.887207 C48.544434,55.887207 48.544434,43.14258 48.544434,43.14258 C48.544434,42.58789 48.316895,42.311035 47.861694,42.311035 C47.861694,42.311035 45.24951,42.311035 45.24951,42.311035 C44.71521,42.311035 44.448364,42.58789 44.448364,43.14258 C44.448364,43.14258 44.448364,54.995605 44.448364,54.995605 C44.448364,57.807617 44.666016,59.689453 45.101196,60.640137 C46.05127,62.700195 48.44519,63.729004 52.284546,63.729004 C56.06372,63.729004 58.53711,62.769043 59.704468,60.84912 C60.060913,60.234863 60.298218,59.49121 60.417114,58.620117 C60.535767,57.748047 60.594727,56.520508 60.594727,54.936523 C60.594727,54.936523 60.594727,43.14258 60.594727,43.14258 C60.59497,42.588867 60.35742,42.311035 59.882324,42.311035 ZM43.245728,89.24414 C30.345093,85.78516 20.18396,75.615234 16.727173,62.70508 C16.4292,61.592773 15.286743,60.93213 14.175659,61.23047 C13.064087,61.529297 12.404419,62.672363 12.702393,63.785156 C16.54309,78.129395 27.833374,89.42822 42.167114,93.27344 C42.34778,93.32178 42.529297,93.34424 42.707764,93.34424 C43.62744,93.34424 44.469604,92.729004 44.718872,91.79883 C45.016724,90.686035 44.356934,89.54297 43.245728,89.24414 ZM89.17651,43.276855 C89.42578,44.208496 90.26782,44.823242 91.187744,44.823242 C91.365845,44.823242 91.54761,44.79883 91.72827,44.751465 C92.83948,44.452637 93.49927,43.309082 93.201294,42.19629 C89.360596,27.850586 78.07007,16.552734 63.73633,12.708496 C62.625,12.411133 61.48242,13.070801 61.18457,14.183105 C60.88672,15.29541 61.54651,16.438965 62.658203,16.737305 C75.55823,20.196777 85.71973,30.365723 89.17651,43.276855 ZM51.70691,90.50244 C51.17871,90.48389 50.65381,90.45654 50.14612,90.41797 C48.99817,90.331055 47.998535,91.19385 47.912598,92.3418 C47.826538,93.490234 48.687134,94.490234 49.834473,94.57666 C50.398315,94.62012 50.98047,94.6499 51.564697,94.6709 C51.58911,94.67139 51.61316,94.671875 51.637207,94.671875 C52.754883,94.671875 53.679443,93.78369 53.71814,92.65723 C53.757446,91.507324 52.857056,90.54199 51.70691,90.50244 ZM54.19568,15.479004 C54.727417,15.49707 55.252808,15.525391 55.757324,15.562988 C55.81067,15.567383 55.86316,15.569824 55.91565,15.569824 C56.99536,15.569824 57.90869,14.735352 57.99109,13.640137 C58.076904,12.491211 57.216553,11.490234 56.06909,11.404297 C55.50891,11.362793 54.92737,11.330078 54.340088,11.311523 C53.185303,11.270508 52.22522,12.171875 52.185547,13.322266 C52.145386,14.473145 53.045654,15.437988 54.19568,15.479004 Z"/>
</svg>