<svg xmlns="http://www.w3.org/2000/svg"
 xmlns:xlink="http://www.w3.org/1999/xlink"
 width="122px" height="103px"  viewBox="0 0 122 103">
<path fill-rule="evenodd"  fill="#ffffff"
 d="M110.95349,1.2329102 C110.95349,1.2329102 11.046875,1.2329102 11.046875,1.2329102 C5.507019,1.2329102 1.0,5.739258 1.0,11.27832 C1.0,11.27832 1.0,66.18457 1.0,66.18457 C1.0,71.72412 5.507019,76.231445 11.046875,76.231445 C11.046875,76.231445 45.031494,76.231445 45.031494,76.231445 C45.031494,76.231445 41.61853,86.470215 41.61853,86.470215 C38.39026,87.30762 36.000153,90.24463 36.000153,93.731445 C36.000153,93.731445 36.000153,96.23096 36.000153,96.23096 C36.000153,96.23096 28.499817,96.23096 28.499817,96.23096 C27.119415,96.23096 25.999725,97.351074 25.999725,98.73193 C25.999725,100.11279 27.119415,101.23193 28.499817,101.23193 C28.499817,101.23193 39.910583,101.23193 39.910583,101.23193 C39.910583,101.23193 39.911163,101.23193 39.911163,101.23193 C39.911163,101.23193 82.08951,101.23193 82.08951,101.23193 C82.08951,101.23193 93.50055,101.23193 93.50055,101.23193 C94.88092,101.23193 96.00061,100.11279 96.00061,98.73193 C96.00061,97.351074 94.88092,96.23096 93.50055,96.23096 C93.50055,96.23096 86.00055,96.23096 86.00055,96.23096 C86.00055,96.23096 86.00055,93.731445 86.00055,93.731445 C86.00055,90.24463 83.609406,87.308105 80.38138,86.470215 C80.38138,86.470215 76.96887,76.231445 76.96887,76.231445 C76.96887,76.231445 110.95349,76.231445 110.95349,76.231445 C116.49286,76.231445 120.99963,71.72412 120.99963,66.18457 C120.99963,66.18457 120.99963,11.27832 120.99963,11.27832 C121.0,5.739258 116.493225,1.2329102 110.95349,1.2329102 ZM78.50006,91.23096 C79.878845,91.23096 81.00061,92.35205 81.00061,93.731445 C81.00061,93.731445 81.00061,96.23096 81.00061,96.23096 C81.00061,96.23096 41.000305,96.23096 41.000305,96.23096 C41.000305,96.23096 41.000305,93.731445 41.000305,93.731445 C41.000305,92.35205 42.12149,91.23096 43.500153,91.23096 C43.500153,91.23096 78.50006,91.23096 78.50006,91.23096 C78.50006,91.23096 78.50006,91.23096 78.50006,91.23096 ZM46.968628,86.23047 C46.968628,86.23047 50.30194,76.231445 50.30194,76.231445 C50.30194,76.231445 71.69794,76.231445 71.69794,76.231445 C71.69794,76.231445 75.03125,86.23047 75.03125,86.23047 C75.03125,86.23047 46.968628,86.23047 46.968628,86.23047 ZM116.00006,66.18457 C116.00006,68.9668 113.736206,71.231445 110.95349,71.231445 C110.95349,71.231445 73.50037,71.231445 73.50037,71.231445 C73.50037,71.231445 48.500305,71.231445 48.500305,71.231445 C48.500305,71.231445 11.047119,71.231445 11.047119,71.231445 C8.264374,71.231445 6.0001526,68.9668 6.0001526,66.18457 C6.0001526,66.18457 6.0001526,63.731934 6.0001526,63.731934 C6.0001526,63.731934 100.96881,63.731934 100.96881,63.731934 C102.34955,63.731934 103.46893,62.612305 103.46893,61.231934 C103.46893,59.850586 102.34979,58.73242 100.96881,58.73242 C100.96881,58.73242 6.0001526,58.73242 6.0001526,58.73242 C6.0001526,58.73242 6.0001526,11.27832 6.0001526,11.27832 C6.0001526,8.496582 8.264374,6.2314453 11.047119,6.2314453 C11.047119,6.2314453 110.95349,6.2314453 110.95349,6.2314453 C113.72009,6.2314453 115.971436,8.470703 115.99744,11.231445 C115.99744,11.231445 21.431366,11.231445 21.431366,11.231445 C20.050873,11.231445 18.931274,12.350586 18.931274,13.731445 C18.931274,15.112793 20.050873,16.232422 21.431366,16.232422 C21.431366,16.232422 116.00006,16.232422 116.00006,16.232422 C116.00006,16.232422 116.00006,66.18457 116.00006,66.18457 C116.00006,66.18457 116.00006,66.18457 116.00006,66.18457 ZM46.18814,42.274902 C46.18814,42.274902 46.19055,42.274902 46.19055,42.274902 C46.38315,43.382812 47.31128,44.256348 48.482666,44.33545 C48.482666,44.33545 67.54578,45.604004 67.54578,45.604004 C67.54578,45.604004 67.546265,45.598145 67.546265,45.598145 C68.85202,45.6875 70.01611,44.742676 70.182495,43.427246 C70.182495,43.427246 71.78262,30.802734 71.78262,30.802734 C71.78262,30.802734 72.262146,27.018555 72.262146,27.018555 C72.262146,27.018555 75.58835,27.03418 75.58835,27.03418 C76.9628,27.039062 78.08237,25.928223 78.08728,24.55371 C78.09314,23.178223 76.9827,22.05957 75.607574,22.054688 C75.607574,22.054688 70.07895,22.027832 70.07895,22.027832 C68.80646,22.021973 67.753265,22.973145 67.599,24.206543 C67.599,24.206543 66.841736,30.178223 66.841736,30.178223 C66.841736,30.178223 65.537476,40.46875 65.537476,40.46875 C65.537476,40.46875 50.76599,39.48584 50.76599,39.48584 C50.76599,39.48584 49.386414,31.747559 49.386414,31.747559 C49.386414,31.747559 59.313354,31.747559 59.313354,31.747559 C60.69409,31.747559 61.81366,30.62793 61.81366,29.248535 C61.81366,27.8667 60.69409,26.747559 59.313354,26.747559 C59.313354,26.747559 46.40329,26.747559 46.40329,26.747559 C46.40329,26.747559 46.40329,26.749512 46.40329,26.749512 C46.26126,26.749512 46.11786,26.762207 45.973206,26.786621 C44.614136,27.023926 43.704895,28.317871 43.94165,29.677734 C43.94165,29.677734 46.18814,42.274902 46.18814,42.274902 ZM52.417847,47.936035 C51.041138,47.936035 49.918,49.06006 49.918,50.4375 C49.918,51.81299 51.041138,52.936523 52.417847,52.936523 C53.794556,52.936523 54.917694,51.81299 54.917694,50.4375 C54.91748,49.06006 53.794556,47.936035 52.417847,47.936035 ZM65.162445,47.936035 C63.785706,47.936035 62.662598,49.06006 62.662598,50.4375 C62.662598,51.81299 63.785706,52.936523 65.162445,52.936523 C66.539185,52.936523 67.661835,51.81299 67.661835,50.4375 C67.661835,49.06006 66.539185,47.936035 65.162445,47.936035 ZM13.765198,11.231934 C13.765198,11.231934 12.642303,11.231934 12.642303,11.231934 C11.26181,11.231934 10.142212,12.350586 10.142212,13.731445 C10.142212,15.112793 11.26181,16.23291 12.642303,16.23291 C12.642303,16.23291 13.765198,16.23291 13.765198,16.23291 C15.145691,16.23291 16.265259,15.113281 16.265259,13.731445 C16.265259,12.350586 15.145935,11.231934 13.765198,11.231934 ZM108.18787,63.731934 C108.18787,63.731934 109.24512,63.731934 109.24512,63.731934 C110.62561,63.731934 111.74518,62.612305 111.74518,61.231934 C111.74518,59.850586 110.62561,58.73242 109.24512,58.73242 C109.24512,58.73242 108.18787,58.73242 108.18787,58.73242 C106.80737,58.73242 105.687805,59.850586 105.687805,61.231934 C105.687805,62.612793 106.80737,63.731934 108.18787,63.731934 Z"/>
</svg>